 <svg width="33" height="33" viewBox="0 0 33 33" fill="none" xmlns="http://www.w3.org/2000/svg">
<g clip-path="url(#clip0)">
<path d="M10.2377 9.85357C9.7877 9.40354 9.7877 8.66008 10.2377 8.1905C10.6878 7.74047 11.4312 7.74047 11.9008 8.1905L24.2077 20.4974C25.6751 21.9648 25.6751 24.3714 24.2077 25.8389C22.7403 27.3063 20.3337 27.3063 18.8662 25.8389L5.97237 12.945C5.85498 12.8863 5.73758 12.8081 5.62019 12.7102C3.89842 10.9884 -0.67997 6.41004 3.72233 2.00774C5.40501 0.325057 7.42026 -0.320614 9.55291 0.148965C11.2943 0.520692 13.0943 1.63594 14.8944 3.43602L28.8643 17.406C30.5274 19.0691 31.4079 21.3779 31.3101 23.9019C31.2122 26.3084 30.2144 28.6563 28.5513 30.3194C26.8882 31.9825 24.5794 32.9412 22.1925 32.9999C22.1338 32.9999 22.0751 32.9999 21.9968 32.9999C19.6098 32.9999 17.4184 32.0999 15.7944 30.476L2.02011 16.7016C1.57007 16.2516 1.57007 15.5081 2.02011 15.0386C2.47014 14.5885 3.2136 14.5885 3.68318 15.0386L17.4575 28.8128C18.6706 30.0259 20.3337 30.6716 22.1533 30.652C23.9338 30.6128 25.6556 29.8889 26.8882 28.6563C29.5296 26.0149 29.6666 21.5343 27.2013 19.0691L13.2313 5.09909C11.7834 3.6512 10.3356 2.73165 9.06379 2.45771C7.71375 2.16422 6.50065 2.55556 5.3854 3.69035C4.28969 4.78606 3.97666 5.80345 4.368 7.0361C4.64194 7.91656 5.268 8.89487 6.32456 10.0688C6.4028 10.1275 6.50065 10.1862 6.55935 10.2449L20.5098 24.1953C21.0576 24.7432 21.9772 24.7432 22.525 24.1953C23.0728 23.6475 23.0728 22.7279 22.525 22.1801L10.2377 9.85357Z" fill="#4E4B4B"/>
</g>
<defs>
<clipPath id="clip0">
<rect width="33" height="33" fill="white" transform="matrix(-1 0 0 1 33 0)"/>
</clipPath>
</defs>
</svg>
